<?xml version="1.0" standalone="no"?>
<!DOCTYPE svg PUBLIC "-//W3C//DTD SVG 20010904//EN"
 "http://www.w3.org/TR/2001/REC-SVG-20010904/DTD/svg10.dtd">
<svg version="1.0" xmlns="http://www.w3.org/2000/svg"
 width="700.000000pt" height="700.000000pt" viewBox="0 0 700.000000 700.000000"
 preserveAspectRatio="xMidYMid meet">
<metadata>
Created by potrace 1.11, written by Peter Selinger 2001-2013
</metadata>
<g transform="translate(0.000000,700.000000) scale(0.100000,-0.100000)"
fill="#000000" stroke="none">
<path d="M2668 5652 c-61 -23 -68 -23 -258 -17 -234 9 -203 9 -272 2 -54 -6
-124 -32 -159 -59 -55 -44 -59 -142 -10 -303 16 -55 30 -97 30 -94 1 12 84
-11 175 -47 64 -26 103 -36 141 -35 47 0 54 -2 59 -23 12 -50 171 -225 206
-226 11 0 11 -3 -3 -11 -35 -21 -50 -77 -52 -199 -1 -64 2 -145 6 -180 5 -36
11 -81 14 -100 2 -19 8 -57 12 -85 14 -97 5 -398 -13 -427 -13 -21 -14 -253
-1 -345 13 -100 14 -225 2 -273 -15 -61 -17 -133 -5 -197 19 -98 19 -174 -1
-267 -15 -67 -17 -112 -13 -260 l6 -178 -35 -37 c-19 -20 -54 -63 -78 -96
-104 -142 -133 -166 -243 -205 -127 -45 -205 -98 -218 -148 -5 -18 -1 -20 54
-17 78 4 97 -2 105 -34 10 -36 5 -61 -19 -93 -24 -34 -96 -78 -128 -78 -19 0
-21 4 -16 22 18 58 18 104 1 121 -29 29 -52 20 -90 -35 -25 -38 -35 -47 -36
-33 0 20 0 20 -9 0 -7 -17 -9 -17 -9 -3 -1 27 -55 82 -133 134 -40 27 -92 68
-116 91 -26 26 -86 64 -150 95 -58 28 -123 68 -143 88 -22 21 -56 75 -79 123
-27 56 -51 92 -68 103 -61 36 -67 56 -65 204 0 74 3 179 6 233 3 64 0 116 -8
148 -7 27 -13 50 -13 52 0 1 -3 22 -6 47 -4 25 -8 68 -11 95 -3 28 -10 62 -16
78 -13 32 -53 46 -81 28 -33 -21 -31 -6 10 71 38 70 40 78 46 188 3 63 8 135
10 160 3 25 -2 71 -10 105 -9 33 -18 68 -20 78 -2 10 -6 27 -9 38 -15 47 -6
241 19 385 6 39 11 126 10 195 -1 68 -3 162 -3 209 -3 178 67 294 288 482 174
150 232 226 234 310 1 50 -33 86 -127 132 -159 78 -329 100 -516 67 -84 -15
-139 -19 -205 -15 -213 12 -219 12 -311 -11 -163 -41 -265 -103 -266 -162 -2
-78 80 -143 238 -189 190 -55 228 -110 249 -355 9 -101 16 -141 36 -186 27
-64 29 -134 6 -212 -17 -55 -20 -97 -21 -246 0 -164 9 -367 20 -419 6 -30 6
-360 -1 -426 -3 -30 -8 -75 -11 -100 -3 -25 -8 -56 -9 -70 -2 -14 -9 -54 -16
-90 -22 -116 -17 -233 13 -340 15 -52 30 -120 33 -150 3 -30 8 -68 10 -85 2
-16 7 -64 10 -106 3 -42 7 -85 9 -95 2 -11 7 -53 11 -94 14 -149 45 -269 101
-382 72 -149 151 -239 247 -284 29 -13 58 -24 65 -24 26 0 147 -53 188 -82
l41 -29 129 4 c125 5 132 4 244 -30 202 -61 313 -49 508 53 56 29 128 61 160
69 118 33 135 42 171 95 19 28 64 79 99 113 176 170 187 190 143 276 -26 49
-29 103 -6 94 9 -3 35 2 58 11 92 35 165 208 182 432 8 95 -3 146 -50 248 -19
42 -35 80 -35 85 0 5 11 28 24 52 57 103 73 297 42 509 -22 151 -27 195 -30
255 -1 41 3 86 11 109 18 53 16 97 -10 197 -19 71 -22 107 -20 208 1 67 8 131
14 142 5 11 11 37 11 59 0 40 -18 78 -84 172 -55 81 -56 92 -8 107 60 18 78
52 120 230 16 68 43 115 74 129 14 6 51 14 83 17 70 8 127 32 171 73 18 16 68
45 110 63 90 38 159 84 168 111 11 37 -7 92 -39 121 -70 63 -141 83 -317 92
-151 7 -184 13 -250 42 -154 69 -199 75 -302 35z"/>
<path d="M5215 5476 c-27 -8 -90 -25 -140 -39 -110 -32 -130 -35 -230 -42 -44
-3 -102 -12 -130 -20 -41 -12 -54 -21 -70 -52 -26 -49 -56 -63 -139 -63 -66 0
-70 -2 -102 -36 -19 -19 -34 -41 -34 -47 0 -7 -24 -39 -53 -73 -106 -121 -224
-335 -283 -514 -23 -67 -29 -103 -28 -170 0 -81 3 -90 48 -185 26 -55 55 -131
65 -170 l17 -70 75 -23 c90 -28 207 -34 298 -15 138 28 283 126 308 208 35
114 -28 226 -222 391 -81 69 -112 102 -142 156 -39 66 -25 153 33 218 58 64
227 133 374 154 70 10 122 17 161 21 57 6 167 33 269 66 114 37 120 39 191 40
97 3 346 -111 424 -194 22 -23 66 -62 98 -86 67 -51 77 -66 74 -111 -2 -29 3
-36 34 -53 65 -34 100 -129 94 -255 -4 -95 -34 -160 -86 -192 -47 -29 -60 -53
-48 -93 4 -15 5 -36 2 -45 -15 -41 -198 -295 -250 -347 -132 -132 -342 -256
-552 -325 -66 -22 -122 -49 -183 -91 -49 -32 -97 -59 -106 -60 -60 -2 -116
-10 -133 -19 -11 -6 -31 -29 -44 -50 l-25 -40 -68 0 -69 0 -65 -67 c-72 -76
-100 -113 -248 -328 -57 -82 -110 -157 -119 -165 -40 -37 -61 -74 -61 -110 0
-64 -26 -126 -93 -223 -102 -148 -98 -133 -104 -352 -5 -192 -5 -193 21 -250
14 -31 56 -100 93 -153 38 -53 88 -137 113 -187 59 -116 62 -118 226 -109
l126 7 -8 101 c-13 158 -9 236 15 288 21 48 71 97 99 100 9 0 24 1 32 2 8 1
24 17 35 37 57 100 98 129 183 129 92 0 170 -37 328 -156 61 -46 119 -84 130
-84 24 0 136 -55 224 -109 36 -22 102 -59 148 -81 46 -22 85 -47 88 -55 8 -20
27 -19 74 5 51 26 84 25 123 -4 58 -43 120 -52 217 -32 135 28 339 131 408
206 17 18 34 25 60 25 35 0 38 3 74 75 22 41 47 84 57 95 42 46 55 98 54 217
-1 91 -16 127 -63 150 -48 25 -140 24 -189 -2 -66 -33 -98 -68 -184 -198 -85
-130 -152 -199 -212 -219 -40 -14 -152 -10 -167 5 -7 7 -18 12 -26 12 -13 0
-59 29 -269 173 -71 48 -125 78 -150 82 -21 3 -48 8 -60 11 -12 2 -46 26 -76
54 -30 27 -63 50 -73 50 -11 0 -27 -14 -36 -30 -9 -17 -21 -30 -26 -30 -6 0
-15 29 -22 65 -12 62 -39 120 -40 84 0 -8 -12 -26 -26 -40 -35 -32 -95 -30
-204 10 -124 46 -138 47 -306 36 -123 -8 -167 0 -203 39 -47 50 -43 105 13
179 13 17 28 49 31 70 8 43 31 68 84 93 20 9 61 43 92 74 47 47 67 60 120 74
80 23 100 37 146 100 60 81 64 85 118 102 82 27 132 52 290 144 189 110 194
112 290 145 99 34 124 48 254 149 144 113 175 135 245 171 61 32 68 39 107
127 14 32 36 59 69 82 38 27 52 46 73 98 14 34 46 108 71 163 25 55 47 114 50
130 8 48 15 105 21 175 8 85 13 115 32 173 l15 49 -29 31 c-17 18 -44 62 -61
100 -51 112 -223 356 -326 466 -138 145 -324 223 -586 247 -30 3 -66 7 -80 10
-72 12 -318 12 -365 0z m766 -148 c3 -32 -4 -63 -24 -107 -19 -43 -25 -48 -44
-40 -31 11 -54 50 -53 90 1 71 -2 69 62 69 39 0 58 -4 59 -12z"/>
</g>
</svg>
